<svg id="Layer_1" data-name="Layer 1" xmlns="http://www.w3.org/2000/svg" viewBox="0 0 524.53 102.3"><defs><style>.cls-1{fill:#f9b23e;}</style></defs><title>Untitled-1</title><path class="cls-1" d="M210.91,319q3.26,0,20.24-1.18l-.3,15.4q-8.79,0-20.83.89-16.59,1.38-21.92,2.27l.1-14.81,28.73-39.1a112.75,112.75,0,0,0-16.68,1.88l-2.37.3,1.87-15.9,41.37-3-2.67,13.92Z" transform="translate(-188.1 -237.18)"/><path class="cls-1" d="M259.17,315.33q3.9,0,24.28-1.42l-.35,18.48q-10.55,0-25,1.07-19.91,1.65-26.3,2.72l.12-17.77,34.47-46.92q-6.51,0-20,2.26l-2.84.35L245.78,255l49.64-3.56-3.2,16.71Z" transform="translate(-188.1 -237.18)"/><path class="cls-1" d="M316.13,311.68q4.56,0,28.34-1.66l-.42,21.56q-12.3,0-29.16,1.25-23.22,1.94-30.68,3.17l.13-20.73,40.22-54.73q-7.59,0-23.35,2.62l-3.32.42,2.62-22.26,57.92-4.14-3.73,19.49Z" transform="translate(-188.1 -237.18)"/><path class="cls-1" d="M344.41,337.25q9.7-48.86,11.84-64.52c2.6-.47,5.25-.93,7.92-1.38a52.71,52.71,0,0,1,8.58-.66,19.3,19.3,0,0,1,8,1.55,14.47,14.47,0,0,1,5.56,4.32q4.1,5.25,4.1,14.15,0,9.78-5.17,20.64A52.33,52.33,0,0,1,371,329.77q-10.06,7.92-21.54,7.92A38.48,38.48,0,0,1,344.41,337.25Zm15.93-11q6.23-4,11.48-16.64a65.75,65.75,0,0,0,3.91-11.83,40.69,40.69,0,0,0,1-7.57,6.44,6.44,0,0,0-1.87-4.67q-1.86-1.9-5.87-1.91-1.52,7.65-3.47,16.46Q362.2,315,360.34,326.21Z" transform="translate(-188.1 -237.18)"/><path class="cls-1" d="M435.27,290a52.46,52.46,0,0,1-1.56,12,58.85,58.85,0,0,1-4.23,12.1A51.4,51.4,0,0,1,423.3,324a47.11,47.11,0,0,1-7.34,7.39q-7.93,6.22-15.22,6.22a11.77,11.77,0,0,1-9.7-4.44q-3.92-4.91-3.92-14.24,0-10.16,4.72-21.89a59.09,59.09,0,0,1,12.37-19.58q8.28-8.37,17.35-8.37,7.47,0,10.95,6.06C434.34,278.4,435.27,283.35,435.27,290Zm-12.64,5.6q0-7.38-4.27-7.38-5.43,0-9.79,5.34a37.4,37.4,0,0,0-6,11.65,37,37,0,0,0-2,11.39,5.79,5.79,0,0,0,3,5.34,3.43,3.43,0,0,0,2,.63,10.59,10.59,0,0,0,7.25-2.81,23.7,23.7,0,0,0,5.3-6.89,38.32,38.32,0,0,0,3.25-8.77A37,37,0,0,0,422.63,295.6Z" transform="translate(-188.1 -237.18)"/><path class="cls-1" d="M468.46,287.24q-1.51-6.76-5.25-6.77c-1.55,0-3.22,1.09-5,3.25a39.09,39.09,0,0,0-5.12,8.32,59.9,59.9,0,0,0-5.78,23.23c0,3.8.56,6.49,1.69,8.1a4.78,4.78,0,0,0,3.91,2.4,9.52,9.52,0,0,0,4.19-.94,11.6,11.6,0,0,0,3.47-2.53,13,13,0,0,0,3.73-8.81l-9.69,1.42,1.69-9q12.54-1.59,22.51-3.38a48.09,48.09,0,0,1-3.65,16.15,41.94,41.94,0,0,1-7.25,11.53,29.58,29.58,0,0,1-9.12,6.94,21,21,0,0,1-8.77,2.31A15.54,15.54,0,0,1,443.1,338a14,14,0,0,1-5.25-4.49q-4.82-6.4-4.81-18a56.13,56.13,0,0,1,3.38-20.33,48.27,48.27,0,0,1,8.5-14.55,35,35,0,0,1,11-8.68q5.93-2.85,10.28-2.85a16.41,16.41,0,0,1,7,1.29,12.36,12.36,0,0,1,4.36,3.43q3.39,4.09,3.38,11Z" transform="translate(-188.1 -237.18)"/><path class="cls-1" d="M475.4,337.34l11.92-64.79,28.83-2.49c-.41,1.37-.77,2.69-1.06,4s-.6,2.54-.89,3.79-.54,2.34-.72,3.29c-1.77.18-4.21.26-7.29.26h-6.14l-3.21,16.38c3.27-.18,6-.3,8.19-.36s3.62-.12,4.27-.18c-.24,1.73-.46,3.4-.67,5s-.46,3.31-.75,5c-.66.06-1.66.1-3,.13s-2.79.08-4.27.14l-5,.18-3.12,16.81,13.26-2.13-.89,10.41Z" transform="translate(-188.1 -237.18)"/><path class="cls-1" d="M539,315.54q-12.81-.36-15.66-.36-5.07,0-8.27.13c-2.14.09-4,.14-5.61.14l4.36-16.11q10,.36,12.46.36,8.72,0,15.84-.45Z" transform="translate(-188.1 -237.18)"/><path class="cls-1" d="M570.79,290.71a15.21,15.21,0,0,0,.45-3.74,4.87,4.87,0,0,0-1-3.16,2.75,2.75,0,0,0-2.09-1.2,4.86,4.86,0,0,0-2.18.53,11.24,11.24,0,0,0-2.14,1.43,5.65,5.65,0,0,0-1.25,8.23,15.41,15.41,0,0,0,3.07,2.71q1.83,1.25,4,2.58a19.12,19.12,0,0,1,4,3.39q4.27,5,4.27,13.25a21.07,21.07,0,0,1-7.3,16.47q-6.93,6.23-17.53,6.23-7.83,0-14.32-8.19L545.52,316a11.5,11.5,0,0,0,4.81,4.54q3.55,2.13,5.33,2.13a10.66,10.66,0,0,0,3-.35,7.14,7.14,0,0,0,2.18-1.07,4.68,4.68,0,0,0,2.22-3.87,6.74,6.74,0,0,0-1.42-4.14,21.46,21.46,0,0,0-3.52-3.56c-1.39-1.12-2.91-2.27-4.54-3.42a39.3,39.3,0,0,1-4.49-3.7q-5-4.44-5-9.34a15.57,15.57,0,0,1,2.8-9,27.94,27.94,0,0,1,7-7.07,36.85,36.85,0,0,1,9.25-4.72,26.85,26.85,0,0,1,8.5-1.73,20.87,20.87,0,0,1,5.65.62,10.8,10.8,0,0,1,3.78,1.87c2.32,1.9,3.47,4.68,3.47,8.36a14.49,14.49,0,0,1-.22,2.58c-.15.83-.28,1.75-.4,2.76Z" transform="translate(-188.1 -237.18)"/><path class="cls-1" d="M602.92,271.13q0,.18-6.41,40.22h1.42q2.58-9.42,5-17.57t3.29-11.17q1.77-6.76,2.85-10.23h.8a44.23,44.23,0,0,0,9.61-1.16,29.85,29.85,0,0,0-.4,3.34c-.15,1.69-.35,3.73-.58,6.14s-.48,5-.71,7.92-.48,5.71-.72,8.5q-.62,7.56-1.33,14.23h1.69l8.63-39.15c2.08-.3,4.07-.56,6-.8q7.49-1,10.59-1.6Q639,280.12,636,292q-7.12,28.13-10,40.85l-20.55,3.47,4-35.15h-1.16l-9,33-19,3.38,6.94-64.69a62.31,62.31,0,0,0,8.06-.84A72.17,72.17,0,0,1,602.92,271.13Z" transform="translate(-188.1 -237.18)"/><path class="cls-1" d="M647.94,321.68l-3.65,13.08-4.76.62q-2.71.36-5.38.67l-5.52.66q3.66-12.09,6.19-20.46T639,302.5c1.06-3.59,2.12-7.15,3.15-10.68s2-6.94,3-10.23,1.85-6.31,2.63-9a222.48,222.48,0,0,0,25.09-2.84q-.79,8.81-1.34,20.82-1.15,23.94-1.95,44.14c-1.78.29-3.52.56-5.21.8s-3.44.5-5.25.8l-4.94.8c.65-5.69,1.22-10.83,1.69-15.39Zm2.14-9.08,6.58-.45c0-.35.05-1,.14-1.82s.19-1.85.31-3q.71-9.53,1.51-17.71l.62-7.92-1.42.09Z" transform="translate(-188.1 -237.18)"/><path class="cls-1" d="M669.75,337.34q9.33-41.56,12.81-64.43,9.78-2.94,14.68-2.94a17.71,17.71,0,0,1,7.7,1.38,12.76,12.76,0,0,1,4.58,3.7q3.12,4.18,3.12,12.1a26.78,26.78,0,0,1-1.87,9.83,30.09,30.09,0,0,1-5,8.46,24.32,24.32,0,0,1-7.2,5.87,17.82,17.82,0,0,1-8.46,2.18h-1q-1.68,7.47-3.64,20.73ZM695.2,281q-2.33,12.9-4.19,22.87c2.14-.54,4.12-2.26,6-5.16a19.94,19.94,0,0,0,3-10.86,7.6,7.6,0,0,0-1.51-5.12A4.38,4.38,0,0,0,695.2,281Z" transform="translate(-188.1 -237.18)"/></svg>